<?xml version="1.0" encoding="UTF-8" standalone="no"?>
<svg
   xmlns:dc="http://purl.org/dc/elements/1.1/"
   xmlns:cc="http://creativecommons.org/ns#"
   xmlns:rdf="http://www.w3.org/1999/02/22-rdf-syntax-ns#"
   xmlns:svg="http://www.w3.org/2000/svg"
   xmlns="http://www.w3.org/2000/svg"
   id="svg2625"
   version="1.1"
   viewBox="0 0 210 297"
   height="297mm"
   width="210mm">
  <defs
     id="defs2619" />
  <metadata
     id="metadata2622">
    <rdf:RDF>
      <cc:Work
         rdf:about="">
        <dc:format>image/svg+xml</dc:format>
        <dc:type
           rdf:resource="http://purl.org/dc/dcmitype/StillImage" />
        <dc:title></dc:title>
      </cc:Work>
    </rdf:RDF>
  </metadata>
  <g
     id="layer1">
    <g
       id="g2597"
       transform="matrix(0.59619934,0,0,0.59619934,242.1408,34.879606)">
      <path
         style="opacity:1;fill:#008000;fill-opacity:1;stroke:none;stroke-width:0.23338297"
         d="m -330.74939,-35.619162 c -8.27282,0 -14.93294,6.660115 -14.93294,14.932938 V 119.50211 c -27.91752,9.45003 -49.62598,13.07679 -49.68062,26.30729 -4.8e-4,27.97267 69.87871,43.84552 154.21422,43.84553 84.3355,-1e-5 164.042066,-16.62881 164.041584,-44.60148 -0.01148,-13.24946 -22.479087,-16.14254 -50.436564,-25.60612 V -20.686224 c 0,-8.272823 -6.66012,-14.932938 -14.93294,-14.932938 z"
         id="rect2406" />
      <g
         id="text2379"
         style="font-style:normal;font-variant:normal;font-weight:normal;font-stretch:normal;font-size:78.61302185px;line-height:1.25;font-family:'Twinkle the Star';-inkscape-font-specification:'Twinkle the Star, Normal';font-variant-ligatures:normal;font-variant-caps:normal;font-variant-numeric:normal;font-feature-settings:normal;text-align:start;letter-spacing:0px;word-spacing:0px;writing-mode:lr-tb;text-anchor:start;fill:#ffffff;fill-opacity:1;stroke:none;stroke-width:1.96532536"
         transform="scale(1.3919788,0.71840174)"
         aria-label="Happy">
        <path
           id="path2655"
           style="font-style:normal;font-variant:normal;font-weight:normal;font-stretch:normal;font-size:78.61302185px;font-family:'Twinkle the Star';-inkscape-font-specification:'Twinkle the Star, Normal';font-variant-ligatures:normal;font-variant-caps:normal;font-variant-numeric:normal;font-feature-settings:normal;text-align:start;writing-mode:lr-tb;text-anchor:start;fill:#ffffff;stroke-width:1.96532536"
           d="m -223.36291,-10.814549 c -0.15722,5.5029113 -0.15722,10.61275776 -0.23583,16.0370563 0,3.0659078 -0.15723,6.2104287 1.2578,9.0404977 0.86475,1.808099 2.43701,2.515616 4.55956,2.043938 1.25781,-0.314452 1.49365,-0.78613 1.57226,-3.223134 -0.0786,-0.943356 -0.15723,-2.437003 -0.23584,-2.908681 -0.23584,-3.2231343 -0.0786,-6.2104291 0.0786,-9.98385414 0,-1.49364746 0.0786,-2.98729486 0.15723,-4.48094226 0,-0.8647432 0.31445,-1.4936474 1.25781,-1.5722604 1.49365,-0.1572261 2.90868,-0.3144521 4.40233,-0.3930651 1.02197,-0.078613 1.57226,0.4716781 1.57226,1.4936474 0,0.5502911 0,2.1225516 0,2.6728427 -0.23584,4.9526204 0.31445,8.3329803 0.15722,12.9711488 -0.0786,1.179195 -0.15722,2.437004 0.15723,3.537586 0.23584,0.707517 0.6289,0.707517 1.10058,0.78613 0.55029,0 0.94336,-0.393065 1.10058,-0.864743 0.31446,-1.021969 0.15723,-2.122552 0.0786,-3.223134 -0.47168,-9.2763367 0.15722,-18.5526733 0.0786,-27.82901 0,-3.852038 0.23584,-7.625463 0.31445,-11.477501 0,-0.943356 0.0786,-2.279778 -1.25781,-2.279778 -1.17919,0 -0.86474,1.336422 -1.02197,2.201165 -0.70751,5.738751 -0.31445,11.556114 -0.70751,17.373478 -0.0786,1.3364212 -0.55029,1.8080993 -1.72949,1.8867123 -1.02197,0.078613 -2.12255,0.2358391 -3.22313,0.2358391 -1.88672,0.078613 -2.12255,-0.078613 -2.20117,-2.0439384 -0.0786,-3.301747 -0.0786,-6.603494 -0.0786,-9.905241 0,-1.100582 -0.15723,-6.524881 0.23584,-9.11911 0.15722,-0.864744 -0.15723,-1.650874 -1.33642,-1.8081 -1.57226,-0.235839 -2.35839,-0.235839 -4.24511,0.235839 -1.2578,0.393065 -1.49364,1.336421 -1.49364,1.8081 -0.0786,0.707517 -0.15723,1.493647 -0.15723,2.201164 -0.0786,5.424299 0,11.320275 -0.15723,16.587348 z" />
        <path
           id="path2657"
           style="font-style:normal;font-variant:normal;font-weight:normal;font-stretch:normal;font-size:78.61302185px;font-family:'Twinkle the Star';-inkscape-font-specification:'Twinkle the Star, Normal';font-variant-ligatures:normal;font-variant-caps:normal;font-variant-numeric:normal;font-feature-settings:normal;text-align:start;writing-mode:lr-tb;text-anchor:start;fill:#ffffff;stroke-width:1.96532536"
           d="m -183.06022,17.800591 c -0.78613,-1.415035 -1.02197,-2.987295 -1.41503,-4.559556 -1.33643,-5.424298 -1.25781,-11.0058226 -2.27978,-16.5087341 -0.70752,-4.0878771 -1.10058,-8.1757539 -1.57226,-12.3422449 -0.70752,-5.895976 -2.43701,-11.634727 -4.24511,-17.294864 -0.23584,-0.707518 -0.47167,-1.257809 -1.17919,-1.572261 -2.90868,-1.100582 -5.03123,0.235839 -5.18846,3.38036 -0.31445,5.267073 -0.47168,10.455532 -1.25781,15.643992 -1.10058,7.3896236 -1.65087,14.85786065 -2.12255,21.3827415 -0.15723,3.3803599 -0.23584,5.8959765 -0.31445,8.3329805 -0.0786,1.021969 -0.55029,2.672843 -0.0786,3.616199 0.62891,1.179195 2.12256,1.021969 3.6162,0.78613 1.25781,-0.157226 2.27978,-0.707517 2.43701,-2.122552 0.0786,-0.943356 0.15722,-1.808099 0.23584,-2.751455 0.15722,-2.201165 0.23583,-2.279778 2.51561,-2.279778 1.41504,0.07861 2.83007,0.07861 4.24511,0.157226 2.51561,0.157226 2.59423,0.157226 3.14452,2.59423 0.39306,1.57226 0.55029,3.144521 1.57226,4.480942 0.39306,0.471678 0.86474,1.100582 1.65087,0.550291 0.55029,-0.314452 0.55029,-0.943356 0.23584,-1.493647 z m -6.52488,-9.1977238 c -1.65087,0 -3.30175,-0.078613 -5.03123,-0.157226 -1.1792,-0.1572261 -1.57227,-0.7075172 -1.41504,-1.8080995 0.39307,-1.9653256 0.47168,-3.9306511 0.62891,-5.9745897 0.6289,-6.6821069 1.57226,-13.285601 1.65087,-20.046321 0,-1.57226 0.47168,-3.14452 0.70752,-4.716781 0.0786,-0.393065 0.6289,-0.393065 0.70751,0 0.62891,1.8081 0.94336,3.773425 1.1792,5.660138 0.86474,6.289041 1.57226,12.4994702 2.59423,18.70989889 0.39306,2.20116461 0.39306,4.48094221 0.55029,6.68210681 0.0786,1.1791954 -0.39307,1.6508735 -1.57226,1.6508735 z" />
        <path
           id="path2659"
           style="font-style:normal;font-variant:normal;font-weight:normal;font-stretch:normal;font-size:78.61302185px;font-family:'Twinkle the Star';-inkscape-font-specification:'Twinkle the Star, Normal';font-variant-ligatures:normal;font-variant-caps:normal;font-variant-numeric:normal;font-feature-settings:normal;text-align:start;writing-mode:lr-tb;text-anchor:start;fill:#ffffff;stroke-width:1.96532536"
           d="m -162.14424,-21.034242 c -0.47168,-2.437004 -0.86475,-3.616199 -1.88672,-5.502912 -2.75145,-4.638168 -6.44626,-8.097141 -12.18502,-8.647432 -0.23583,-0.07861 -0.55029,-0.07861 -0.78613,-0.07861 -2.437,-0.157226 -2.75145,0 -2.90868,2.437004 -0.0786,1.808099 0.0786,3.616199 0.0786,5.502911 0,5.817364 0.0786,11.71334 0.15722,17.6093171 0,6.2890418 0.31445,12.5780835 0,18.8671253 -0.23584,2.8300686 -0.31445,5.6601376 0.39307,8.4115936 0.47167,1.729486 0.86474,2.043938 2.59423,1.808099 0.55029,0 1.02197,-0.157226 1.49364,-0.235839 1.25781,-0.314452 1.8081,-0.943356 1.65088,-2.358391 -0.62891,-4.323716 -0.62891,-8.3329798 -0.47168,-13.0497612 0.0786,-2.90868176 0.0786,-5.3456854 0.0786,-8.0185282 0.0786,-2.5942297 0.0786,-2.7514557 2.75146,-3.1445209 4.32371,-0.7075172 6.91794,-3.2231337 8.4902,-7.1537847 0.5503,-1.572261 0.94336,-4.716782 0.5503,-6.446268 z m -9.90525,10.769984 c -1.10058,0.314452 -1.57226,0.07861 -1.88671,-1.100582 -0.31445,-1.8081 -0.23584,-4.480943 -0.31445,-6.682107 l -0.15723,-11.163049 c 0.23584,-2.751456 0.5503,-2.987295 2.27978,-2.043939 4.00927,2.122552 6.6035,5.267073 7.46824,9.748015 0.70752,3.694812 -1.49365,10.298306 -7.38963,11.241662 z" />
        <path
           id="path2661"
           style="font-style:normal;font-variant:normal;font-weight:normal;font-stretch:normal;font-size:78.61302185px;font-family:'Twinkle the Star';-inkscape-font-specification:'Twinkle the Star, Normal';font-variant-ligatures:normal;font-variant-caps:normal;font-variant-numeric:normal;font-feature-settings:normal;text-align:start;writing-mode:lr-tb;text-anchor:start;fill:#ffffff;stroke-width:1.96532536"
           d="m -141.4162,-21.034242 c -0.47168,-2.437004 -0.86475,-3.616199 -1.88671,-5.502912 -2.75146,-4.638168 -6.44627,-8.097141 -12.18502,-8.647432 -0.23584,-0.07861 -0.55029,-0.07861 -0.78613,-0.07861 -2.43701,-0.157226 -2.75146,0 -2.90868,2.437004 -0.0786,1.808099 0.0786,3.616199 0.0786,5.502911 0,5.817364 0.0786,11.71334 0.15722,17.6093171 0,6.2890418 0.31446,12.5780835 0,18.8671253 -0.23583,2.8300686 -0.31445,5.6601376 0.39307,8.4115936 0.47168,1.729486 0.86474,2.043938 2.59423,1.808099 0.55029,0 1.02197,-0.157226 1.49365,-0.235839 1.2578,-0.314452 1.8081,-0.943356 1.65087,-2.358391 -0.6289,-4.323716 -0.6289,-8.3329798 -0.47168,-13.0497612 0.0786,-2.90868176 0.0786,-5.3456854 0.0786,-8.0185282 0.0786,-2.5942297 0.0786,-2.7514557 2.75146,-3.1445209 4.32372,-0.7075172 6.91795,-3.2231337 8.49021,-7.1537847 0.55029,-1.572261 0.94335,-4.716782 0.55029,-6.446268 z m -9.90524,10.769984 c -1.10059,0.314452 -1.57226,0.07861 -1.88672,-1.100582 -0.31445,-1.8081 -0.23583,-4.480943 -0.31445,-6.682107 l -0.15722,-11.163049 c 0.23584,-2.751456 0.55029,-2.987295 2.27977,-2.043939 4.00927,2.122552 6.6035,5.267073 7.46824,9.748015 0.70752,3.694812 -1.49365,10.298306 -7.38962,11.241662 z" />
        <path
           id="path2663"
           style="font-style:normal;font-variant:normal;font-weight:normal;font-stretch:normal;font-size:78.61302185px;font-family:'Twinkle the Star';-inkscape-font-specification:'Twinkle the Star, Normal';font-variant-ligatures:normal;font-variant-caps:normal;font-variant-numeric:normal;font-feature-settings:normal;text-align:start;writing-mode:lr-tb;text-anchor:start;fill:#ffffff;stroke-width:1.96532536"
           d="m -128.1564,-19.461982 c -0.47167,1.729487 -1.17919,-1.100582 -1.41503,-1.729486 -0.47168,-1.572261 -0.94336,-3.144521 -1.72949,-4.638168 -0.94335,-1.886713 -1.49364,-3.852038 -1.96532,-5.895977 -0.86475,-3.458973 -0.78613,-3.458973 -4.48095,-2.751456 -2.12255,0.471678 -2.437,0.943356 -1.72948,3.065908 0.6289,2.122552 1.41503,4.087877 2.437,6.053203 2.04394,4.245103 3.93065,9.276336 4.24511,14.150344 0.31445,5.9745894 1.02196,11.39888786 0.78613,17.4520905 -0.0786,1.9653256 -0.0786,3.38036 -0.31446,5.8959765 -0.23584,2.122552 -0.39306,3.537586 -0.23584,5.267073 0.23584,1.886712 0.86475,2.35839 2.83007,2.201164 0.39307,-0.07861 0.78613,-0.07861 1.1792,-0.157226 0.78613,-0.157226 1.25781,-0.628904 1.17919,-1.415034 0.23584,-2.515617 0.0786,-8.5688196 0.23584,-10.14108 0.39307,-5.4242985 0.15723,-10.92721 0.15723,-16.3515085 0.0786,-2.2011645 -0.39307,-4.3237165 0,-6.4462675 0.47168,-2.122552 1.17919,-4.16649 1.8081,-6.210429 1.10058,-3.773425 2.27978,-7.468237 3.38036,-11.241662 0.23584,-0.628904 0.31445,-1.257809 0.39306,-1.886713 0,-0.550291 -0.23584,-1.021969 -0.78613,-1.179195 -0.55029,-0.157226 -0.94335,0.157226 -1.17919,0.628904 -0.31445,0.707517 -0.55029,1.415035 -0.78613,2.122552 -1.33642,4.323716 -2.83007,8.647432 -4.00927,13.206987 z" />
      </g>
      <g
         id="text2383"
         style="font-style:normal;font-variant:normal;font-weight:normal;font-stretch:normal;font-size:66.30357361px;line-height:1.25;font-family:'Twinkle the Star';-inkscape-font-specification:'Twinkle the Star, Normal';font-variant-ligatures:normal;font-variant-caps:normal;font-variant-numeric:normal;font-feature-settings:normal;text-align:start;letter-spacing:0px;word-spacing:0px;writing-mode:lr-tb;text-anchor:start;fill:#ffffff;fill-opacity:1;stroke:none;stroke-width:1.65758193"
         transform="scale(1.0760292,0.92934279)"
         aria-label="St. Patrick's">
        <path
           id="path2666"
           style="font-style:normal;font-variant:normal;font-weight:normal;font-stretch:normal;font-size:66.30357361px;font-family:'Twinkle the Star';-inkscape-font-specification:'Twinkle the Star, Normal';font-variant-ligatures:normal;font-variant-caps:normal;font-variant-numeric:normal;font-feature-settings:normal;text-align:start;writing-mode:lr-tb;text-anchor:start;fill:#ffffff;stroke-width:1.65758193"
           d="m -300.66385,65.890924 c 0,0.331518 0,0.596732 0,0.861946 -0.1326,2.055411 -0.99455,2.851054 -3.04996,2.983661 -1.7239,0.132607 -3.18257,-0.795643 -3.84561,-2.585839 -0.72934,-1.8565 -0.66304,-3.713 -0.26521,-5.5695 0.1326,-0.331518 0.26521,-0.663036 0.33151,-0.994554 0.13261,-0.530429 0.33152,-1.193464 -0.33151,-1.458679 -0.72934,-0.331517 -1.25977,0.331518 -1.59129,0.861947 -1.72389,2.983661 -1.19346,6.099929 0.0663,8.950982 1.39238,2.851054 4.44234,3.911911 6.82927,3.447786 4.84016,-0.861946 7.02818,-3.646696 6.69666,-8.553161 -0.0663,-0.132607 -0.0663,-0.265214 -0.0663,-0.397821 -0.39782,-5.503197 -2.18802,-10.674876 -4.11082,-15.780251 -1.7902,-5.039071 -3.6467,-9.547714 -5.90102,-14.387875 -0.59673,-1.326072 -0.99455,-2.718447 -1.19346,-4.110822 -0.19892,-1.790196 0.72933,-3.514089 2.51953,-3.514089 2.91736,0 4.70756,1.326071 4.70756,4.177125 0.0663,1.193464 0,2.320625 -0.46413,3.447786 -0.13261,0.397821 -0.26521,0.795643 -0.33152,1.259768 -0.0663,0.397821 0.13261,0.795643 0.53043,1.060857 0.46413,0.265214 0.79564,0 1.12716,-0.265214 0.99456,-0.663036 1.39238,-1.723893 1.52498,-2.851054 0.26522,-1.591286 0.0663,-3.315179 -0.33151,-4.840161 -0.79565,-2.917357 -2.78475,-4.309732 -5.76842,-4.442339 -3.04996,-0.132608 -4.90646,0.596732 -6.09992,3.580393 -0.59674,1.524982 -0.72934,2.386928 -0.86195,4.044517 -0.26521,3.116268 0.53043,6.696661 1.45868,9.547715 1.8565,5.901018 4.24343,11.669429 6.56405,17.43784 1.06086,2.585839 1.8565,5.237982 1.8565,8.089036 z" />
        <path
           id="path2668"
           style="font-style:normal;font-variant:normal;font-weight:normal;font-stretch:normal;font-size:66.30357361px;font-family:'Twinkle the Star';-inkscape-font-specification:'Twinkle the Star, Normal';font-variant-ligatures:normal;font-variant-caps:normal;font-variant-numeric:normal;font-feature-settings:normal;text-align:start;writing-mode:lr-tb;text-anchor:start;fill:#ffffff;stroke-width:1.65758193"
           d="m -290.07392,59.790995 c 0.19891,4.044518 0.19891,5.967322 0.39782,8.619465 0.0663,0.729339 0.33152,1.392375 0.66303,1.989107 0.79565,1.259768 3.91191,1.922804 5.10538,1.060857 0.39782,-0.265214 0.53043,-1.326071 0.53043,-2.121714 -0.13261,-1.989107 -0.26522,-4.707554 -0.53043,-6.895572 -0.59673,-5.304286 -1.25977,-9.481411 -1.12716,-14.785697 0,-2.320625 -0.19891,-4.64125 -0.39782,-6.895571 -0.33152,-3.713001 0,-7.426001 -0.0663,-11.139001 0,-1.790196 0.0663,-2.188018 2.25432,-2.254321 1.32608,0 1.59129,-0.530429 1.59129,-0.92825 0,-0.596733 -0.19891,-0.994554 -0.72934,-1.127161 -0.92825,-0.265214 -2.51954,-0.464125 -3.51409,-0.530429 -2.38693,-0.132607 -3.84561,-0.0663 -6.16623,0.198911 -1.52498,0.132607 -2.12172,0.464125 -2.05541,1.259768 0.1326,1.326071 1.19346,1.127161 2.05541,1.193464 1.9228,0.0663 2.12171,0.331518 1.9228,2.254322 -0.26521,2.519536 -0.33152,5.039071 -0.33152,7.558607 0.0663,3.381482 -0.0663,7.028179 0.0663,10.674875 0.13261,4.44234 0.0663,7.890126 0.33152,11.86834 z" />
        <path
           id="path2670"
           style="font-style:normal;font-variant:normal;font-weight:normal;font-stretch:normal;font-size:66.30357361px;font-family:'Twinkle the Star';-inkscape-font-specification:'Twinkle the Star, Normal';font-variant-ligatures:normal;font-variant-caps:normal;font-variant-numeric:normal;font-feature-settings:normal;text-align:start;writing-mode:lr-tb;text-anchor:start;fill:#ffffff;stroke-width:1.65758193"
           d="m -274.81582,68.476763 c 0.0663,-1.723893 -0.86194,-2.78475 -2.51953,-2.851053 -1.52498,-0.0663 -2.71845,1.12716 -2.78475,2.718446 -0.0663,1.723893 0.72934,2.652143 2.25432,2.718447 1.9228,0.132607 3.04996,-0.861947 3.04996,-2.58584 z" />
        <path
           id="path2672"
           style="font-style:normal;font-variant:normal;font-weight:normal;font-stretch:normal;font-size:66.30357361px;font-family:'Twinkle the Star';-inkscape-font-specification:'Twinkle the Star, Normal';font-variant-ligatures:normal;font-variant-caps:normal;font-variant-numeric:normal;font-feature-settings:normal;text-align:start;writing-mode:lr-tb;text-anchor:start;fill:#ffffff;stroke-width:1.65758193"
           d="m -249.88567,30.75003 c -2.91736,-3.911911 -6.69666,-5.304286 -11.33791,-6.033625 -0.79565,-0.132607 -1.59129,0.464125 -1.65759,1.591285 -0.33152,3.713001 -0.59673,6.696661 -0.39782,10.409662 0.26521,4.177125 0.1326,7.492303 0.33151,12.597679 v 1.8565 c 0.19892,4.707553 0.26522,9.348803 0.33152,14.056357 -0.0663,1.326072 -0.33152,2.652143 -0.19891,3.978215 0.0663,1.392375 1.06086,2.05541 2.65214,2.121714 1.32608,0 1.65759,-0.265214 2.12172,-1.790197 0.13261,-0.530428 0.26521,-1.060857 0.33152,-1.657589 0.26521,-2.386929 0.26521,-4.840161 0.26521,-7.293393 0,-3.911911 -0.33152,-7.823822 0.0663,-11.735732 0.13261,-1.060858 0.46413,-1.65759 1.59129,-1.790197 1.39238,-0.198911 2.71845,-0.729339 3.91191,-1.524982 2.51954,-1.591286 3.44779,-4.044518 3.91191,-6.829268 0.46413,-2.983661 -0.19891,-5.635804 -1.9228,-7.956429 z m -1.72389,11.404215 c -1.39238,1.591285 -3.18258,1.922803 -5.03908,2.254321 -0.66303,0.132607 -0.72934,-0.464125 -0.79564,-0.994554 -0.13261,-2.386928 -0.13261,-4.243428 0.13261,-7.227089 0,-1.989107 -0.0663,-4.044518 0,-6.166232 0,-1.8565 0.39782,-2.055411 2.12171,-1.259768 6.23254,2.917357 6.36515,10.078143 3.5804,13.393322 z" />
        <path
           id="path2674"
           style="font-style:normal;font-variant:normal;font-weight:normal;font-stretch:normal;font-size:66.30357361px;font-family:'Twinkle the Star';-inkscape-font-specification:'Twinkle the Star, Normal';font-variant-ligatures:normal;font-variant-caps:normal;font-variant-numeric:normal;font-feature-settings:normal;text-align:start;writing-mode:lr-tb;text-anchor:start;fill:#ffffff;stroke-width:1.65758193"
           d="m -229.7356,69.603924 c -0.66303,-1.193464 -0.86194,-2.519536 -1.19346,-3.845607 -1.12716,-4.574947 -1.06086,-9.282501 -1.9228,-13.923751 -0.59674,-3.447785 -0.92825,-6.895571 -1.32608,-10.409661 -0.59673,-4.972768 -2.05541,-9.812929 -3.58039,-14.586786 -0.19891,-0.596732 -0.39782,-1.060857 -0.99455,-1.326071 -2.45323,-0.92825 -4.24343,0.19891 -4.37604,2.851053 -0.26521,4.44234 -0.39782,8.818376 -1.06086,13.194411 -0.92825,6.232536 -1.39237,12.531376 -1.79019,18.034572 -0.13261,2.851054 -0.19891,4.972768 -0.26522,7.028179 -0.0663,0.861947 -0.46412,2.254322 -0.0663,3.049965 0.53043,0.994553 1.7902,0.861946 3.04996,0.663035 1.06086,-0.132607 1.92281,-0.596732 2.05542,-1.790196 0.0663,-0.795643 0.1326,-1.524982 0.19891,-2.320625 0.1326,-1.8565 0.19891,-1.922804 2.12171,-1.922804 1.19346,0.0663 2.38693,0.0663 3.58039,0.132607 2.12172,0.132607 2.18802,0.132607 2.65215,2.188018 0.33151,1.326072 0.46412,2.652143 1.32607,3.779304 0.33152,0.397821 0.72934,0.92825 1.39237,0.464125 0.46413,-0.265214 0.46413,-0.795643 0.19891,-1.259768 z m -5.50319,-7.757518 c -1.39238,0 -2.78475,-0.0663 -4.24343,-0.132607 -0.99456,-0.132607 -1.32607,-0.596732 -1.19347,-1.524982 0.33152,-1.65759 0.39783,-3.315179 0.53043,-5.039072 0.53043,-5.635804 1.32607,-11.205304 1.39238,-16.907411 0,-1.326072 0.39782,-2.652143 0.59673,-3.978215 0.0663,-0.331518 0.53043,-0.331518 0.59673,0 0.53043,1.524983 0.79564,3.182572 0.99456,4.773858 0.72933,5.304286 1.32607,10.542268 2.18801,15.78025 0.33152,1.8565 0.33152,3.779304 0.46413,5.635804 0.0663,0.994554 -0.33152,1.392375 -1.32607,1.392375 z" />
        <path
           id="path2676"
           style="font-style:normal;font-variant:normal;font-weight:normal;font-stretch:normal;font-size:66.30357361px;font-family:'Twinkle the Star';-inkscape-font-specification:'Twinkle the Star, Normal';font-variant-ligatures:normal;font-variant-caps:normal;font-variant-numeric:normal;font-feature-settings:normal;text-align:start;writing-mode:lr-tb;text-anchor:start;fill:#ffffff;stroke-width:1.65758193"
           d="m -225.45384,59.790995 c 0.19892,4.044518 0.19892,5.967322 0.39783,8.619465 0.0663,0.729339 0.33151,1.392375 0.66303,1.989107 0.79564,1.259768 3.91191,1.922804 5.10538,1.060857 0.39782,-0.265214 0.53043,-1.326071 0.53043,-2.121714 -0.13261,-1.989107 -0.26522,-4.707554 -0.53043,-6.895572 -0.59674,-5.304286 -1.25977,-9.481411 -1.12716,-14.785697 0,-2.320625 -0.19891,-4.64125 -0.39783,-6.895571 -0.33151,-3.713001 0,-7.426001 -0.0663,-11.139001 0,-1.790196 0.0663,-2.188018 2.25432,-2.254321 1.32607,0 1.59129,-0.530429 1.59129,-0.92825 0,-0.596733 -0.19891,-0.994554 -0.72934,-1.127161 -0.92825,-0.265214 -2.51954,-0.464125 -3.51409,-0.530429 -2.38693,-0.132607 -3.84561,-0.0663 -6.16623,0.198911 -1.52499,0.132607 -2.12172,0.464125 -2.05541,1.259768 0.1326,1.326071 1.19346,1.127161 2.05541,1.193464 1.9228,0.0663 2.12171,0.331518 1.9228,2.254322 -0.26521,2.519536 -0.33152,5.039071 -0.33152,7.558607 0.0663,3.381482 -0.0663,7.028179 0.0663,10.674875 0.1326,4.44234 0.0663,7.890126 0.33151,11.86834 z" />
        <path
           id="path2678"
           style="font-style:normal;font-variant:normal;font-weight:normal;font-stretch:normal;font-size:66.30357361px;font-family:'Twinkle the Star';-inkscape-font-specification:'Twinkle the Star, Normal';font-variant-ligatures:normal;font-variant-caps:normal;font-variant-numeric:normal;font-feature-settings:normal;text-align:start;writing-mode:lr-tb;text-anchor:start;fill:#ffffff;stroke-width:1.65758193"
           d="m -209.33378,53.956281 c 0.19891,-1.127161 1.39237,2.188018 1.79019,3.381482 0.99456,3.514089 1.8565,6.298839 2.91736,9.812929 0.26522,0.994553 0.79564,2.254321 1.39238,3.182571 0.53043,0.795643 1.8565,1.193465 2.78475,1.060858 2.51953,-0.464125 3.7793,-4.177126 2.71844,-6.166233 -0.33151,-0.596732 -1.25976,-0.331518 -1.39237,0.331518 -0.19891,0.596732 -0.0663,1.259768 -0.33152,1.989107 -0.19891,0.663036 -0.59673,1.259768 -1.32607,1.392375 -0.72934,0.132607 -1.45868,-1.12716 -1.72389,-1.723893 -0.53043,-1.060857 -0.92825,-2.188018 -1.25977,-3.381482 -0.86195,-3.447786 -1.59129,-6.961875 -2.85106,-10.277054 -0.46412,-1.127161 -0.72933,-2.254321 -1.06085,-3.381482 -0.53043,-1.790196 -0.46413,-1.790196 1.32607,-2.121714 3.31518,-0.596733 5.6358,-2.453233 6.82927,-5.503197 0.66303,-1.657589 0.66303,-3.447786 0.59673,-5.171679 -0.19891,-2.652143 -0.39782,-5.436893 -2.12172,-7.624911 -2.85105,-3.447786 -6.63035,-4.972768 -11.07269,-5.105375 -1.19347,0 -1.7902,0.464125 -2.12172,1.591286 -0.33151,1.458679 -0.53042,2.983661 -0.66303,4.508643 -0.53043,4.442339 0.13261,8.818375 -0.0663,13.260715 -0.1326,2.121714 -0.19891,4.309732 -0.19891,6.49775 0.13261,5.768411 0.59674,10.343357 0.46413,15.912858 0,0.663035 0.0663,2.718446 0.19891,3.381482 0.13261,0.729339 0.59673,1.193464 1.45868,1.259768 0.46412,0 0.99455,0.0663 1.45868,0.0663 1.72389,-0.0663 2.12171,-0.331518 2.25432,-2.055411 0.0663,-1.392375 0.0663,-2.78475 0,-4.177125 -0.33152,-3.713 -0.26522,-7.094482 0,-10.940089 z m 0.33152,-12.995501 c 0.0663,-4.376036 -0.13261,-7.823821 -0.19891,-11.603125 0,-0.331518 -0.0663,-0.663036 0,-1.060857 0.0663,-1.060857 0.33151,-1.259768 1.32607,-0.92825 4.57494,1.458678 6.82926,4.442339 7.02818,9.2825 0.0663,1.723893 0.1326,3.381482 -0.59674,4.972768 -1.19346,2.652143 -4.30973,4.508643 -7.16078,4.243429 -0.86195,-0.0663 -0.72934,-0.72934 -0.66304,-1.259768 0.13261,-1.259768 0.26522,-2.188018 0.26522,-3.646697 z" />
        <path
           id="path2680"
           style="font-style:normal;font-variant:normal;font-weight:normal;font-stretch:normal;font-size:66.30357361px;font-family:'Twinkle the Star';-inkscape-font-specification:'Twinkle the Star, Normal';font-variant-ligatures:normal;font-variant-caps:normal;font-variant-numeric:normal;font-feature-settings:normal;text-align:start;writing-mode:lr-tb;text-anchor:start;fill:#ffffff;stroke-width:1.65758193"
           d="m -188.58905,69.073495 c -0.39782,-3.381482 -0.26521,-6.762964 -0.59673,-10.078143 -0.53043,-4.442339 -0.26522,-8.950982 -0.19891,-13.393322 0.0663,-3.182571 0.13261,-6.298839 0.26521,-9.481411 0,-1.458678 -0.19891,-1.723893 -1.59128,-1.989107 -2.32063,-0.397821 -3.18257,-0.132607 -3.44779,1.127161 -0.0663,0.265214 -0.13261,0.530429 -0.13261,0.861946 0,0.397822 0,0.795643 0,1.259768 -0.26521,4.64125 0.13261,9.348804 -0.0663,14.056358 0,1.790196 0,3.646696 0,5.436893 -0.0663,4.243429 0.53043,8.35425 0.59673,12.597679 0,0.596732 0,1.326071 0.46413,1.723893 0.86194,0.663036 2.45323,0.663036 3.64669,0.265214 1.12716,-0.397821 1.19347,-1.392375 1.06086,-2.386929 z m -1.52498,-38.456072 c 0.79564,-0.397822 1.32607,-0.994554 1.32607,-2.254322 0.13261,-2.254321 -0.53043,-3.315178 -0.79564,-3.646696 -0.59673,-0.663036 -2.58584,-0.92825 -3.44779,-0.331518 -1.19346,0.861946 -1.79019,2.188018 -1.39237,3.514089 0.19891,0.861947 0.66303,1.65759 1.25976,2.320625 0.72934,0.92825 2.25433,0.72934 3.04997,0.397822 z" />
        <path
           id="path2682"
           style="font-style:normal;font-variant:normal;font-weight:normal;font-stretch:normal;font-size:66.30357361px;font-family:'Twinkle the Star';-inkscape-font-specification:'Twinkle the Star, Normal';font-variant-ligatures:normal;font-variant-caps:normal;font-variant-numeric:normal;font-feature-settings:normal;text-align:start;writing-mode:lr-tb;text-anchor:start;fill:#ffffff;stroke-width:1.65758193"
           d="m -170.92951,62.774656 c -0.46413,-0.265214 -0.79564,0 -1.19347,0.198911 -0.72934,0.464125 -1.06085,1.259768 -1.52498,1.922803 -0.79564,1.060858 -1.25977,1.127161 -2.18802,0.198911 -1.79019,-1.8565 -2.45323,-4.243429 -2.65214,-6.696661 -0.19891,-2.453232 -0.0663,-4.906464 -0.0663,-7.359697 0,-4.972768 0.39782,-9.812928 1.06085,-14.852 0.0663,-1.060857 0.39783,-2.055411 0.72934,-3.049964 0.19891,-0.530429 0.39782,-1.326072 1.12716,-1.326072 0.92825,0 0.92825,0.92825 1.12716,1.524982 0.26522,0.795643 0.26522,1.524982 0.26522,2.320625 0,0.795643 0,1.922804 1.06086,1.8565 0.99455,-0.0663 1.12716,-1.193464 1.06085,-1.989107 -0.33151,-2.453232 -0.86194,-4.840161 -2.85105,-6.564054 -0.46413,-0.331517 -0.92825,-0.729339 -1.39238,-0.994553 -1.06085,-0.729339 -2.25432,-0.729339 -3.31517,0 -1.7239,1.127161 -2.98366,2.652143 -3.51409,4.574946 -1.12716,3.713001 -1.92281,7.426001 -2.18802,12.332465 -0.0663,3.779304 0,8.486858 0.99455,13.194411 0.59673,2.983661 1.59129,5.901018 3.5804,8.420554 1.65758,1.989107 3.64669,2.652143 6.16623,2.121714 2.45323,-0.596732 3.24887,-2.652142 4.04452,-4.707553 0.1326,-0.397822 0.0663,-0.861947 -0.33152,-1.127161 z" />
        <path
           id="path2684"
           style="font-style:normal;font-variant:normal;font-weight:normal;font-stretch:normal;font-size:66.30357361px;font-family:'Twinkle the Star';-inkscape-font-specification:'Twinkle the Star, Normal';font-variant-ligatures:normal;font-variant-caps:normal;font-variant-numeric:normal;font-feature-settings:normal;text-align:start;writing-mode:lr-tb;text-anchor:start;fill:#ffffff;stroke-width:1.65758193"
           d="m -162.78038,49.11612 c 0.86195,1.723893 1.39237,3.447786 1.8565,5.304286 1.06086,4.376036 2.18802,8.818375 3.24887,13.260714 0.13261,0.663036 0.33152,1.259768 0.66304,1.922804 0.92825,1.8565 2.51954,1.723893 3.6467,0.861947 1.45868,-0.928251 2.05541,-3.315179 1.19346,-4.906465 -0.13261,-0.331518 -0.39782,-0.596732 -0.79564,-0.530429 -0.39782,0 -0.66304,0.265215 -0.72934,0.663036 -0.13261,0.530429 -0.13261,1.060857 -0.19891,1.65759 -0.0663,0.464125 0,1.060857 -0.66304,1.12716 -0.66303,0.0663 -0.72934,-0.663035 -0.92825,-1.060857 -0.0663,-0.265214 -0.53043,-1.790196 -0.59673,-1.989107 -2.05541,-7.890125 -3.38148,-14.719393 -6.23254,-22.344304 -0.53042,-1.326072 -0.39782,-2.254322 0.53043,-3.381483 2.91736,-3.580393 5.30429,-7.426 6.69666,-11.802036 0.26522,-0.861946 0.46413,-1.922803 -0.39782,-2.254321 -1.12716,-0.397822 -1.39237,0.729339 -1.59128,1.524982 -1.06086,3.514089 -3.11627,6.564054 -5.10538,9.614018 -0.19891,0.331518 -0.99455,1.392375 -1.06086,0.397822 -0.0663,-1.193465 -0.26521,-2.453233 -0.19891,-3.646697 0,-2.320625 0,-4.840161 0.19891,-6.829268 0.0663,-0.663036 -0.39782,-1.326072 -1.06085,-1.458679 -0.99456,-0.132607 -1.32607,-0.132607 -2.38693,-0.19891 -1.45868,-0.132608 -1.72389,0.397821 -1.8565,1.8565 -0.0663,1.259768 0.0663,2.188018 0.0663,3.447785 0.13261,4.574947 0.59673,7.956429 0.46413,13.194412 0,2.585839 0,5.768411 0.1326,7.890125 0.33152,5.436893 0.39783,7.359697 0.39783,13.525929 0,0.861946 0.0663,3.116268 0.1326,3.978214 0.19891,1.65759 0.92825,1.989108 2.25432,1.8565 0.66304,0 1.25977,-0.19891 1.8565,-0.397821 1.06086,-0.397822 1.45868,-1.127161 1.39238,-2.320625 -0.39782,-6.29884 -0.79564,-12.597679 -1.19346,-18.896519 0,-0.132607 0.19891,-0.19891 0.26521,-0.0663 z" />
        <path
           id="path2686"
           style="font-style:normal;font-variant:normal;font-weight:normal;font-stretch:normal;font-size:66.30357361px;font-family:'Twinkle the Star';-inkscape-font-specification:'Twinkle the Star, Normal';font-variant-ligatures:normal;font-variant-caps:normal;font-variant-numeric:normal;font-feature-settings:normal;text-align:start;writing-mode:lr-tb;text-anchor:start;fill:#ffffff;stroke-width:1.65758193"
           d="m -147.11306,24.716405 c -2.45323,-0.0663 -3.24888,0.92825 -2.65215,3.381482 0.26522,1.060857 0.39783,2.055411 0.59674,3.116268 0.0663,0.530429 0.19891,1.060857 0.39782,1.591286 0.19891,0.596732 0.59673,0.994553 1.19346,0.994553 0.66304,-0.0663 1.06086,-0.464125 1.25977,-1.060857 0.13261,-0.464125 0.19891,-0.92825 0.33152,-1.392375 0.39782,-1.591286 0.53043,-3.116268 0.46412,-4.773857 0,-0.994554 -0.59673,-1.790197 -1.59128,-1.8565 z" />
        <path
           id="path2688"
           style="font-style:normal;font-variant:normal;font-weight:normal;font-stretch:normal;font-size:66.30357361px;font-family:'Twinkle the Star';-inkscape-font-specification:'Twinkle the Star, Normal';font-variant-ligatures:normal;font-variant-caps:normal;font-variant-numeric:normal;font-feature-settings:normal;text-align:start;writing-mode:lr-tb;text-anchor:start;fill:#ffffff;stroke-width:1.65758193"
           d="m -126.733,61.382281 c -0.92825,-4.840161 -2.85106,-9.348804 -4.84016,-13.857447 -1.19347,-2.652143 -2.65215,-5.237982 -4.04452,-7.823822 -1.45868,-2.851053 -2.51954,-5.768411 -2.91736,-8.950982 -0.19891,-1.524982 -0.19891,-3.049964 0.99456,-4.309732 0.53042,-0.596733 1.06085,-0.795643 1.8565,-0.397822 1.65759,0.861947 3.713,4.243429 3.51409,6.099929 0,0.596732 -0.0663,1.259768 -0.99456,0.663036 -0.66303,-0.464125 -1.32607,-0.132607 -1.59128,0.397821 -0.26522,0.464125 0,1.127161 0.39782,1.591286 0.46412,0.596732 1.12716,0.994554 1.9891,0.795643 1.8565,-0.397822 3.04997,-2.121715 2.65215,-4.044518 -0.39782,-2.188018 -1.32607,-4.177125 -2.65215,-5.901018 -1.8565,-2.58584 -4.57494,-3.049965 -7.16078,-1.127161 -2.32063,1.790196 -3.44779,4.243429 -3.44779,7.094482 -0.0663,5.768411 1.25977,11.205304 4.44234,16.178072 3.11627,4.707554 5.4369,9.746626 7.75752,14.918304 0.53043,1.127161 0.79564,2.386929 0.72934,3.646697 -0.0663,2.652143 -2.12171,4.243429 -4.70755,3.580393 -2.91736,-0.795643 -3.91191,-2.055411 -4.44234,-5.635804 -0.19891,-0.994553 -0.19891,-2.055411 1.32607,-2.386928 0.86194,-0.198911 0.99455,-1.060858 0.39782,-1.790197 -0.59673,-0.795643 -1.52498,-0.994554 -2.45323,-0.464125 -1.19347,0.663036 -1.7902,1.723893 -1.92281,3.049964 -0.19891,1.524983 0.19891,2.917358 0.72934,4.309733 1.12716,3.248875 4.24343,5.436893 7.69122,5.304286 0.86194,0 1.72389,-0.198911 2.45323,-0.663036 2.85105,-1.591286 4.17712,-3.447786 4.37604,-7.094483 0.1326,-0.92825 0.0663,-2.254321 -0.13261,-3.182571 z" />
      </g>
      <g
         id="text2387"
         style="font-style:normal;font-variant:normal;font-weight:normal;font-stretch:normal;font-size:81.09662628px;line-height:1.25;font-family:'Twinkle the Star';-inkscape-font-specification:'Twinkle the Star, Normal';font-variant-ligatures:normal;font-variant-caps:normal;font-variant-numeric:normal;font-feature-settings:normal;text-align:start;letter-spacing:0px;word-spacing:0px;writing-mode:lr-tb;text-anchor:start;fill:#ffffff;fill-opacity:1;stroke:none;stroke-width:2.02741551"
         transform="scale(1.2418508,0.80524971)"
         aria-label="Day">
        <path
           id="path2691"
           style="font-style:normal;font-variant:normal;font-weight:normal;font-stretch:normal;font-size:81.09662628px;font-family:'Twinkle the Star';-inkscape-font-specification:'Twinkle the Star, Normal';font-variant-ligatures:normal;font-variant-caps:normal;font-variant-numeric:normal;font-feature-settings:normal;text-align:start;writing-mode:lr-tb;text-anchor:start;fill:#ffffff;stroke-width:2.02741551"
           d="m -226.83508,101.47599 c 0.16219,2.4329 0,9.16392 0.0811,9.97489 0.0811,4.94689 0.32438,9.97488 0.40548,14.92178 0,6.16334 0.16219,12.32668 0.56768,18.40893 0.0811,0.89206 0.16219,1.70303 0.40548,2.59509 0.16219,0.64878 0.56768,1.21645 1.37864,1.13536 3.32496,0 6.40664,-0.64878 8.75844,-3.00058 3.81154,-3.73044 6.56882,-8.19076 7.37979,-13.54314 0.97316,-6.73102 0.72987,-13.46204 -0.64877,-20.19306 -1.29755,-6.24444 -3.97374,-11.75901 -8.19076,-16.543708 -2.02742,-2.189609 -4.21703,-3.568252 -7.2987,-3.568252 -1.54083,-0.0811 -1.94632,0.0811 -2.3518,1.621933 -0.64877,2.676189 -0.72987,5.433474 -0.48658,8.190757 z m 7.70418,-5.109085 c 1.05426,0.324386 1.70303,1.135353 2.3518,1.946319 4.05483,5.433476 6.48773,11.434626 6.73102,18.246736 0.0811,1.86523 0.40549,3.56826 0.40549,5.67677 0.24329,4.62251 -0.32439,9.4883 -2.10852,14.02971 -1.13535,2.75729 -2.91948,5.028 -5.02799,7.05541 -0.40548,0.40548 -0.89206,0.97316 -1.54083,0.64877 -0.48658,-0.24329 -0.48658,-0.89206 -0.48658,-1.37864 -0.0811,-2.59509 -0.40549,-5.10909 -0.40549,-7.70418 0.0811,-8.35295 0.0811,-16.7059 -0.32438,-25.13995 -0.1622,-3.97374 -0.0811,-8.02857 -0.0811,-12.002303 0,-0.405483 0,-1.378642 0.48658,-1.378642 z" />
        <path
           id="path2693"
           style="font-style:normal;font-variant:normal;font-weight:normal;font-stretch:normal;font-size:81.09662628px;font-family:'Twinkle the Star';-inkscape-font-specification:'Twinkle the Star, Normal';font-variant-ligatures:normal;font-variant-caps:normal;font-variant-numeric:normal;font-feature-settings:normal;text-align:start;writing-mode:lr-tb;text-anchor:start;fill:#ffffff;stroke-width:2.02741551"
           d="m -183.7487,146.8901 c -0.81096,-1.45974 -1.05425,-3.08167 -1.45974,-4.7036 -1.37864,-5.59567 -1.29754,-11.35353 -2.3518,-17.03029 -0.72987,-4.21703 -1.13535,-8.43405 -1.62193,-12.73217 -0.72987,-6.08225 -2.514,-12.0023 -4.37922,-17.841261 -0.24329,-0.72987 -0.48658,-1.297546 -1.21645,-1.621933 -3.00057,-1.135352 -5.19018,0.24329 -5.35237,3.487155 -0.32439,5.433479 -0.48658,10.785849 -1.29755,16.138229 -1.13535,7.62308 -1.70303,15.32726 -2.18961,22.05828 -0.16219,3.48716 -0.24329,6.08225 -0.32439,8.59624 -0.0811,1.05426 -0.56767,2.75729 -0.0811,3.73045 0.64877,1.21645 2.18961,1.05426 3.73044,0.81097 1.29755,-0.1622 2.3518,-0.72987 2.514,-2.18961 0.0811,-0.97316 0.16219,-1.86523 0.24329,-2.83839 0.16219,-2.2707 0.24329,-2.3518 2.59509,-2.3518 1.45974,0.0811 2.91948,0.0811 4.37922,0.1622 2.59509,0.16219 2.67619,0.16219 3.24386,2.67618 0.40549,1.62194 0.56768,3.24387 1.62194,4.62251 0.40548,0.48658 0.89206,1.13536 1.70302,0.56768 0.56768,-0.32439 0.56768,-0.97316 0.24329,-1.54084 z m -6.73102,-9.4883 c -1.70302,0 -3.40605,-0.0811 -5.19018,-0.1622 -1.21645,-0.16219 -1.62193,-0.72987 -1.45974,-1.86522 0.40548,-2.02741 0.48658,-4.05483 0.64877,-6.16334 0.64878,-6.89321 1.62194,-13.70533 1.70303,-20.67964 0,-1.62193 0.48658,-3.24387 0.72987,-4.8658 0.0811,-0.40548 0.64878,-0.40548 0.72987,0 0.64878,1.86522 0.97316,3.89264 1.21645,5.83896 0.89206,6.48773 1.62193,12.89436 2.67619,19.301 0.40548,2.2707 0.40548,4.6225 0.56768,6.89321 0.0811,1.21645 -0.40549,1.70303 -1.62194,1.70303 z" />
        <path
           id="path2695"
           style="font-style:normal;font-variant:normal;font-weight:normal;font-stretch:normal;font-size:81.09662628px;font-family:'Twinkle the Star';-inkscape-font-specification:'Twinkle the Star, Normal';font-variant-ligatures:normal;font-variant-caps:normal;font-variant-numeric:normal;font-feature-settings:normal;text-align:start;writing-mode:lr-tb;text-anchor:start;fill:#ffffff;stroke-width:2.02741551"
           d="m -169.87611,108.4503 c -0.48658,1.78413 -1.21645,-1.13535 -1.45974,-1.78412 -0.48657,-1.62194 -0.97315,-3.24387 -1.78412,-4.7847 -0.97316,-1.946324 -1.54084,-3.973739 -2.02742,-6.082252 -0.89206,-3.568251 -0.81096,-3.568251 -4.6225,-2.838382 -2.18961,0.48658 -2.514,0.97316 -1.78413,3.162769 0.64877,2.189609 1.45974,4.217025 2.514,6.244445 2.10851,4.37921 4.05483,9.5694 4.37921,14.59739 0.32439,6.16334 1.05426,11.75901 0.81097,18.00345 -0.0811,2.02741 -0.0811,3.48715 -0.32439,6.08225 -0.24329,2.1896 -0.40548,3.64934 -0.24329,5.43347 0.24329,1.94632 0.89207,2.4329 2.91948,2.27071 0.40548,-0.0811 0.81097,-0.0811 1.21645,-0.1622 0.81097,-0.16219 1.29755,-0.64877 1.21645,-1.45974 0.24329,-2.59509 0.0811,-8.83953 0.24329,-10.46146 0.40548,-5.59567 0.16219,-11.27243 0.16219,-16.8681 0.0811,-2.27071 -0.40548,-4.46031 0,-6.64992 0.48658,-2.18961 1.21645,-4.29812 1.86523,-6.40664 1.13535,-3.89264 2.3518,-7.704177 3.48715,-11.596815 0.24329,-0.648773 0.32439,-1.297546 0.40548,-1.946319 0,-0.567676 -0.24329,-1.054256 -0.81096,-1.216449 -0.56768,-0.162193 -0.97316,0.162193 -1.21645,0.648773 -0.32439,0.72987 -0.56768,1.459739 -0.81097,2.189609 -1.37864,4.460314 -2.91948,8.920631 -4.13593,13.624231 z" />
      </g>
      <path
         id="path2034"
         d="m -176.91675,73.477078 a 10.492027,6.1663662 82.361594 0 0 -0.41548,0.0383 10.492027,6.1663662 82.361594 0 0 -4.33649,5.05323 10.198637,6.5995041 41.954405 0 0 -5.94426,1.19306 10.198637,6.5995041 41.954405 0 0 2.83014,11.64961 10.198637,6.5995041 41.954405 0 0 3.32825,2.36884 6.5995041,10.198637 78.731523 0 0 -1.79711,0.28099 6.5995041,10.198637 78.731523 0 0 -8.37921,8.573802 6.5995041,10.198637 78.731523 0 0 4.50327,4.05927 6.1663662,10.492027 38.324334 0 0 1.15024,6.55882 6.1663662,10.492027 38.324334 0 0 11.30702,-4.26887 l 0.0818,-0.10288 a 6.1663662,10.492027 38.324334 0 0 1.92182,-3.04051 10.492027,6.1663662 66.315037 0 0 1.21861,4.10509 l 0.0534,0.11947 a 10.492027,6.1663662 66.315037 0 0 9.86153,6.98782 10.492027,6.1663662 66.315037 0 0 2.77079,-6.05471 10.198637,6.5995041 25.907848 0 0 5.3823,-2.78957 10.198637,6.5995041 25.907848 0 0 -5.93976,-10.412982 10.198637,6.5995041 25.907848 0 0 -0.37491,-0.1758 6.1663662,10.492027 75.463157 0 0 0.35463,-0.0819 l 0.12619,-0.033 a 6.1663662,10.492027 75.463157 0 0 8.46712,-8.6249 6.1663662,10.492027 75.463157 0 0 -5.53706,-3.69788 6.5995041,10.198637 35.055968 0 0 -1.89853,-5.75869 6.5995041,10.198637 35.055968 0 0 -11.22514,4.20952 6.5995041,10.198637 35.055968 0 0 -0.2652,0.38842 10.492027,6.1663662 82.361594 0 0 -0.0962,-0.93461 l -0.0181,-0.12998 a 10.492027,6.1663662 82.361594 0 0 -7.12979,-9.47987 z"
         style="opacity:1;fill:#00ff00;fill-opacity:1;stroke:none;stroke-width:0.18350635;stroke-linecap:round;stroke-linejoin:round;stroke-miterlimit:4;stroke-dasharray:none;stroke-dashoffset:0;stroke-opacity:0.38164254" />
      <path
         style="opacity:1;fill:#00ff00;fill-opacity:1;stroke:none;stroke-width:0.99999994"
         d="m -482.05469,448.23438 c -120.82822,21.38033 -243.46186,41.09558 -375.83984,46.65624 h -145.10937 c -96.0656,-4.16237 -198.0162,-17.03393 -308.4238,-42.65624 v 85.2207 c 105.2106,23.54592 206.8185,36.53069 305.7129,41.44922 v 2.67187 h 177.14253 v -2.08008 c 118.27056,-4.89474 233.2261,-19.78235 346.51758,-40.04101 z"
         transform="scale(0.26458333)"
         id="rect2570" />
      <path
         style="opacity:1;fill:#c8ab37;fill-opacity:1;stroke:none;stroke-width:0.74146372"
         d="m -1060,461.0918 v 162.85742 h 285.71484 V 461.0918 Z m 54.2852,33.79882 h 177.14253 v 86.68555 h -177.14253 z"
         transform="scale(0.26458333)"
         id="rect2575" />
      <path
         style="opacity:1;fill:#00ff00;fill-opacity:1;stroke:none;stroke-width:0.18350635;stroke-linecap:round;stroke-linejoin:round;stroke-miterlimit:4;stroke-dasharray:none;stroke-dashoffset:0;stroke-opacity:0.38164254"
         d="m -316.01199,72.721126 a 10.492027,6.1663662 82.361594 0 0 -0.41548,0.0383 10.492027,6.1663662 82.361594 0 0 -4.33649,5.05323 10.198637,6.5995041 41.954405 0 0 -5.94426,1.19306 10.198637,6.5995041 41.954405 0 0 2.83014,11.64961 10.198637,6.5995041 41.954405 0 0 3.32825,2.36884 6.5995041,10.198637 78.731523 0 0 -1.79711,0.28099 6.5995041,10.198637 78.731523 0 0 -8.37921,8.573804 6.5995041,10.198637 78.731523 0 0 4.50327,4.05927 6.1663662,10.492027 38.324334 0 0 1.15024,6.55882 6.1663662,10.492027 38.324334 0 0 11.30702,-4.26887 l 0.0818,-0.10288 a 6.1663662,10.492027 38.324334 0 0 1.92182,-3.04051 10.492027,6.1663662 66.315037 0 0 1.21861,4.10509 l 0.0534,0.11947 a 10.492027,6.1663662 66.315037 0 0 9.86153,6.98782 10.492027,6.1663662 66.315037 0 0 2.77079,-6.05471 10.198637,6.5995041 25.907848 0 0 5.3823,-2.78957 10.198637,6.5995041 25.907848 0 0 -5.93976,-10.412984 10.198637,6.5995041 25.907848 0 0 -0.37491,-0.1758 6.1663662,10.492027 75.463157 0 0 0.35463,-0.0819 l 0.12619,-0.033 a 6.1663662,10.492027 75.463157 0 0 8.46712,-8.6249 6.1663662,10.492027 75.463157 0 0 -5.53706,-3.69788 6.5995041,10.198637 35.055968 0 0 -1.89853,-5.75869 6.5995041,10.198637 35.055968 0 0 -11.22514,4.20952 6.5995041,10.198637 35.055968 0 0 -0.2652,0.38842 10.492027,6.1663662 82.361594 0 0 -0.0962,-0.93461 l -0.0181,-0.12998 a 10.492027,6.1663662 82.361594 0 0 -7.12979,-9.47987 z"
         id="path2584" />
    </g>
  </g>
</svg>
